<svg  viewBox="0 0 310 100" height="16" fill="828282" xmlns="http://www.w3.org/2000/svg">
<g clip-path="url(#clip0)">
<path d="M109.98 26.9485H130.523C143.582 26.9485 149.462 34.196 149.462 44.072C149.462 53.948 143.582 61.221 130.523 61.221H119.832V77.4258H109.98V26.9485ZM130.676 52.1106C137.218 52.1106 139.458 48.7165 139.458 44.072C139.458 39.4275 137.218 36.1355 130.676 36.1355H119.832V52.1106H130.676Z" fill="#828282"/>
<path d="M152.008 58.7456C152.008 46.6239 160.484 38.2791 172.55 38.2791C184.489 38.2791 192.787 46.3687 192.787 58.6435V77.3748H184.413V69.8976C182.096 75.5374 176.954 78.3956 170.972 78.3956C161.732 78.4211 152.008 71.786 152.008 58.7456ZM183.674 58.3883C183.674 51.6512 179.194 46.8791 172.474 46.8791C165.754 46.8791 161.274 51.6512 161.274 58.3883C161.274 65.1255 165.805 69.8976 172.474 69.8976C179.143 69.8976 183.674 65.0744 183.674 58.3883Z" fill="#828282"/>
<path d="M200.45 81.6109H209.614C211.167 85.1581 214.17 86.7659 218.778 86.7659C225.015 86.7659 228.553 83.7801 228.553 76.3539V71.5563C226.236 75.716 222.24 77.9617 217.251 77.9617C208.468 77.9617 200.17 72.2453 200.17 58.669V39.2998H209.308V58.669C209.308 65.9165 213.152 69.3872 218.931 69.3872C224.556 69.3872 228.553 65.7634 228.553 58.669V39.2998H237.717V76.1243C237.717 89.3943 229.317 94.7279 218.778 94.7279C209.919 94.7024 202.588 90.5938 200.45 81.6109Z" fill="#828282"/>
<path d="M248.204 26.9485H258.081V77.4258H248.204V26.9485Z" fill="#828282"/>
<path d="M268.441 26.9485H286.311C303.926 26.9485 313.192 37.0542 313.192 52.1872C313.192 67.3202 303.952 77.4258 286.311 77.4258H268.441V26.9485ZM286.311 68.3154C297.944 68.3154 303.163 61.9866 303.163 52.1872C303.163 42.3877 297.944 36.1355 286.311 36.1355H278.318V68.3409L286.311 68.3154Z" fill="#828282"/>
</g>
<path d="M53.6865 79.5039C60.4415 78.6064 66.6977 75.461 71.4473 70.5745V70.5745L99.1001 42.2314C97.3398 41.9428 95.5577 41.8093 93.7741 41.8324C88.9158 41.8617 84.1363 43.063 79.8416 45.3345C77.1334 46.7809 74.665 48.6373 72.5239 50.8378L62.3247 61.2872C62.2645 61.3537 62.198 61.4202 62.1315 61.4899C58.9259 64.777 54.5533 66.6674 49.9626 66.751C45.372 66.8346 40.9335 65.1046 37.6103 61.9363L48.2623 72.3287C50.4233 74.432 52.2522 76.8514 53.6865 79.5039V79.5039Z" fill="#828282"/>
<path d="M28.525 71.2457L56.8713 98.8985C57.9525 92.2551 56.834 85.4404 53.6859 79.4912C52.2519 76.8411 50.4241 74.4239 48.2648 72.3223L37.6128 61.9299C35.9411 60.3389 34.6018 58.4318 33.6726 56.3193C32.7435 54.2068 32.2428 51.9309 32.1998 49.6234C32.1568 47.316 32.5723 45.023 33.4221 42.8773C34.2719 40.7316 35.5392 38.776 37.1505 37.1238L26.7645 47.7726C24.6239 49.9729 22.1554 51.8283 19.4468 53.2728C20.3378 60.1228 23.5405 66.4634 28.525 71.2457V71.2457Z" fill="#828282"/>
<path d="M0.191974 56.3948C1.95144 56.6807 3.73242 56.8132 5.51482 56.7906C10.3732 56.759 15.1524 55.5566 19.4473 53.2854C22.156 51.8409 24.6245 49.9855 26.765 47.7852L37.1606 37.13C38.7591 35.4884 40.6655 34.1779 42.7707 33.2735C44.876 32.3691 47.1388 31.8884 49.4299 31.859C51.7211 31.8296 53.9955 32.252 56.1233 33.1021C58.2511 33.9522 60.1904 35.2133 61.8306 36.8134L51.321 26.5603C49.0795 24.3814 47.1956 21.8627 45.7385 19.0969C38.9373 19.9735 32.6335 23.1276 27.8543 28.0454L0.191974 56.3948Z" fill="#828282"/>
<path d="M62.3278 61.2935L72.527 50.8441C74.6681 48.6435 77.1365 46.7872 79.8447 45.3408C78.9734 38.6296 75.8812 32.403 71.0609 27.6528L42.7115 0C42.4239 1.75926 42.2914 3.54039 42.3157 5.32284C42.3461 10.124 43.5195 14.8489 45.7386 19.1065C47.1956 21.8722 49.0796 24.391 51.3211 26.5699L61.8307 36.8229C65.1087 40.0202 66.9981 44.3782 67.0911 48.9564C67.1841 53.5345 65.4733 57.9657 62.3278 61.2935V61.2935Z" fill="#828282"/>
<defs>
<clipPath id="clip0">
<rect width="313" height="99.1683" fill="white" transform="translate(0.191895)"/>
</clipPath>
</defs>
</svg>
