<svg enable-background="new 0 0 64 64" height="16" viewBox="0 0 64 64" width="16" xmlns="http://www.w3.org/2000/svg"><path d="m59.8 52.2c0 5.9-13.8 11.8-23.3 11.8-11.7 0-22.7-6.2-28.3-16.3-2.6-4.7-3.9-10-3.9-15.3-.1-6.2 1.7-12.4 5.2-17.7 2.8-4.2 8-9.9 17.3-12.9 2.3-.7 6.4-1.8 11.1-1.8 13.2 0 21.5 9.2 21.5 17.2 0 5.5-4.5 13.4-15.6 13.4-5.1 0-6.8-2.1-6.8-4.5 0-3.3 3.1-7.1 5.3-7.1.9 0 1.5.9 3.3.7 1.8-.3 2.7-1.4 2.7-2.9 0-2.8-3.3-6.5-10.4-6.5-2.3 0-4.9.4-8 1.3-6.3 1.9-9.7 6.4-11.6 9.2-2.3 3.5-3.5 7.7-3.5 11.7 0 3.5.9 7 2.6 10.1 3.7 6.6 11 10.7 18.8 10.7 10.8 0 13.8-5.8 16-6.7 4.2-1.8 7.6 2.9 7.6 5.6z"/></svg>